Coordinates
version=1
nRows=107
nColumns=6
inDegrees=yes

Units are S.I. units (second, meters, Newtons, ...)
If the header above contains a line with 'inDegrees', this indicates whether rotational values are in degrees (yes) or radians (no).

endheader
time	foot_tx	hip_flexion_r	knee_angle_r	ankle_angle_r	lumbar
     51.60000000	      0.27667684	     65.11957601	    -58.17050678	     -5.53956079	     -8.91476060
     51.61000000	      0.27668731	     65.09365692	    -58.20522396	     -5.50159541	     -8.89121774
     51.62000000	      0.27670425	     65.06866943	    -58.23707154	     -5.46628157	     -8.86840563
     51.63000000	      0.27672268	     65.04596316	    -58.26582859	     -5.43437425	     -8.84737582
     51.64000000	      0.27674198	     65.02642658	    -58.29057987	     -5.40698334	     -8.82882613
     51.65000000	      0.27675879	     65.01061237	    -58.31089818	     -5.38446620	     -8.81317680
     51.66000000	      0.27677975	     64.99907652	    -58.32676745	     -5.36755717	     -8.80046385
     51.67000000	      0.27679517	     64.99165952	    -58.33863721	     -5.35514570	     -8.79088515
     51.68000000	      0.27682742	     64.98637907	    -58.34107748	     -5.35148517	     -8.78547269
     51.69000000	      0.27681979	     64.98757810	    -58.35251847	     -5.34240786	     -8.78098771
     51.70000000	      0.27683613	     64.98787728	    -58.35282782	     -5.34236284	     -8.78104072
     51.71000000	      0.27683730	     64.99311860	    -58.35465145	     -5.34228202	     -8.78367999
     51.72000000	      0.27683671	     64.99949787	    -58.35644070	     -5.34255327	     -8.78698440
     51.73000000	      0.27682662	     65.00792790	    -58.35816297	     -5.34277683	     -8.79124156
     51.74000000	      0.27681615	     65.01791721	    -58.36009072	     -5.34296137	     -8.79601721
     51.75000000	      0.27680059	     65.02934384	    -58.36220223	     -5.34258804	     -8.80106595
     51.76000000	      0.27677988	     65.04105403	    -58.36408856	     -5.34161671	     -8.80672513
     51.77000000	      0.27675870	     65.05369418	    -58.36641780	     -5.34008825	     -8.81309992
     51.78000000	      0.27671895	     65.11033284	    -58.37521404	     -5.33566179	     -8.76676841
     51.79000000	      0.27669713	     65.12234358	    -58.37628739	     -5.33418978	     -8.77687063
     51.80000000	      0.27666284	     65.13409476	    -58.38262487	     -5.32816703	     -8.78855484
     51.81000000	      0.27664003	     65.14731221	    -58.38308025	     -5.32628747	     -8.80075531
     51.82000000	      0.27660336	     65.15614973	    -58.39017613	     -5.31889775	     -8.82076856
     51.83000000	      0.27659096	     65.17127948	    -58.38901457	     -5.31833587	     -8.83694005
     51.84000000	      0.27656703	     65.14261544	    -58.39162686	     -5.31198081	     -8.91012751
     51.85000000	      0.27656154	     65.16344730	    -58.38995323	     -5.31236711	     -8.92931412
     51.86000000	      0.27655886	     65.18671806	    -58.38876985	     -5.31291944	     -8.95251044
     51.87000000	      0.27657373	     65.14710409	    -58.38298361	     -5.31365800	     -9.05985950
     51.88000000	      0.27657527	     65.18053003	    -58.38429014	     -5.31408160	     -9.08971834
     51.89000000	      0.27658411	     65.21858852	    -58.38613124	     -5.31529370	     -9.12566069
     51.90000000	      0.27658435	     65.18793458	    -58.39386467	     -5.30878153	     -9.25827749
     51.91000000	      0.27659859	     65.24281676	    -58.39647227	     -5.31157969	     -9.30557394
     51.92000000	      0.27661474	     65.30543086	    -58.40215560	     -5.31355786	     -9.36089376
     51.93000000	      0.27658889	     65.32604964	    -58.42369499	     -5.30131225	     -9.48883563
     51.94000000	      0.27658618	     65.40974701	    -58.44043879	     -5.29716635	     -9.56114144
     51.95000000	      0.27656827	     65.50592911	    -58.46235111	     -5.28969931	     -9.64453622
     51.96000000	      0.27653788	     65.61649396	    -58.48797223	     -5.27975956	     -9.73830266
     51.97000000	      0.27650149	     65.74266662	    -58.51598682	     -5.26829209	     -9.84098255
     51.98000000	      0.27645568	     65.88637504	    -58.54613188	     -5.25496259	     -9.95253207
     51.99000000	      0.27640083	     66.04911953	    -58.57750668	     -5.23999498	    -10.07245734
     52.00000000	      0.27633806	     66.23236534	    -58.60907423	     -5.22371602	    -10.20007726
     52.01000000	      0.27628319	     66.48262431	    -58.63423158	     -5.21331961	    -10.28014971
     52.02000000	      0.27622135	     66.69321312	    -58.65999477	     -5.19704108	    -10.44147803
     52.03000000	      0.27615277	     66.96275065	    -58.68293626	     -5.18222266	    -10.56729463
     52.04000000	      0.27609425	     67.20808620	    -58.69752415	     -5.16792525	    -10.75827255
     52.05000000	      0.27603059	     67.47782346	    -58.70996141	     -5.15210136	    -10.95626500
     52.06000000	      0.27599641	     67.75649439	    -58.70502920	     -5.14464043	    -11.18154056
     52.07000000	      0.27593207	     68.11799881	    -58.70716856	     -5.13162634	    -11.34507985
     52.08000000	      0.27589542	     68.43325234	    -58.69602334	     -5.12100163	    -11.60372960
     52.09000000	      0.27585557	     68.76922050	    -58.68135659	     -5.10885613	    -11.87845793
     52.10000000	      0.27581802	     69.12627593	    -58.66214036	     -5.09620794	    -12.16984576
     52.11000000	      0.27582809	     69.51287103	    -58.62254674	     -5.09570522	    -12.46839727
     52.12000000	      0.27581035	     69.94998729	    -58.58730620	     -5.08930460	    -12.75192098
     52.13000000	      0.27581442	     70.37375677	    -58.54483946	     -5.08353440	    -13.09648552
     52.14000000	      0.27582024	     70.82509686	    -58.49727990	     -5.07801862	    -13.45596693
     52.15000000	      0.27582023	     71.34596973	    -58.44922624	     -5.07228357	    -13.77987061
     52.16000000	      0.27583364	     71.85087477	    -58.39603307	     -5.06514919	    -14.17162039
     52.17000000	      0.27582522	     72.46033713	    -58.34578848	     -5.05660262	    -14.48734391
     52.18000000	      0.27581937	     73.08608324	    -58.29318820	     -5.04579071	    -14.83233329
     52.19000000	      0.27580510	     73.76026109	    -58.24359557	     -5.03039385	    -15.16607562
     52.20000000	      0.27577266	     74.49093407	    -58.19950281	     -5.00818059	    -15.47764383
     52.21000000	      0.27571671	     75.28140236	    -58.15921823	     -4.97900602	    -15.76221405
     52.22000000	      0.27564850	     76.13236168	    -58.12365681	     -4.94208087	    -16.01349832
     52.23000000	      0.27556123	     77.04680904	    -58.09404158	     -4.89510960	    -16.22434672
     52.24000000	      0.27544772	     78.02585997	    -58.07432492	     -4.83416296	    -16.38782806
     52.25000000	      0.27532332	     79.06554500	    -58.05993267	     -4.76075130	    -16.50336840
     52.26000000	      0.27517971	     80.16574245	    -58.05322669	     -4.67129064	    -16.56483483
     52.27000000	      0.27502836	     81.32416822	    -58.05406077	     -4.56478449	    -16.56739498
     52.28000000	      0.27487130	     82.53326340	    -58.06158647	     -4.43965733	    -16.51314823
     52.29000000	      0.27471249	     83.78874262	    -58.07641894	     -4.29397560	    -16.39949693
     52.30000000	      0.27457238	     85.07177717	    -58.09426278	     -4.12934373	    -16.24182227
     52.31000000	      0.27444706	     86.38402157	    -58.11682469	     -3.94338408	    -16.03017245
     52.32000000	      0.27434265	     87.70787157	    -58.14400687	     -3.73511267	    -15.77890278
     52.33000000	      0.27427318	     89.03154577	    -58.17843369	     -3.50359166	    -15.49517473
     52.34000000	      0.27424053	     90.34705039	    -58.21606424	     -3.25075081	    -15.18218772
     52.35000000	      0.27425003	     91.63439166	    -58.26145187	     -2.97465871	    -14.85854044
     52.36000000	      0.27430689	     92.88843166	    -58.31539573	     -2.67660461	    -14.52457803
     52.37000000	      0.27440980	     94.09643245	    -58.38230141	     -2.35532360	    -14.19120083
     52.38000000	      0.27456002	     95.24722628	    -58.46609601	     -2.01085641	    -13.86767797
     52.39000000	      0.27475627	     96.33489598	    -58.57187536	     -1.64284626	    -13.55697601
     52.40000000	      0.27499388	     97.34974042	    -58.70543643	     -1.25041826	    -13.26769422
     52.41000000	      0.27526983	     98.28564948	    -58.87233561	     -0.83313941	    -13.00396912
     52.42000000	      0.27558063	     99.14103283	    -59.07723744	     -0.39111570	    -12.76442033
     52.43000000	      0.27592113	     99.91109525	    -59.32433072	      0.07580233	    -12.55201839
     52.44000000	      0.27628755	    100.59413789	    -59.61575499	      0.56670085	    -12.36605003
     52.45000000	      0.27667418	    101.18372471	    -59.95559477	      1.08270778	    -12.21196551
     52.46000000	      0.27707903	    101.68747632	    -60.33821412	      1.61931013	    -12.07661356
     52.47000000	      0.27750270	    102.10036678	    -60.76315689	      2.17583447	    -11.96441486
     52.48000000	      0.27793538	    102.42359323	    -61.22421475	      2.74920568	    -11.87156324
     52.49000000	      0.27837701	    102.66131648	    -61.71336725	      3.33561788	    -11.79030028
     52.50000000	      0.27882529	    102.78369267	    -62.22492572	      3.93423660	    -11.75760916
     52.51000000	      0.27928294	    102.85569409	    -62.73931990	      4.53295195	    -11.68707048
     52.52000000	      0.27974916	    102.87155438	    -63.24683189	      5.12803135	    -11.58645572
     52.53000000	      0.28020992	    102.82651883	    -63.73677501	      5.71669807	    -11.46196144
     52.54000000	      0.28066848	    102.64368030	    -64.20562237	      6.30142400	    -11.41376210
     52.55000000	      0.28112065	    102.41548000	    -64.63125155	      6.86841433	    -11.32138687
     52.56000000	      0.28157086	    102.11870171	    -65.00430024	      7.41417565	    -11.21642019
     52.57000000	      0.28199636	    101.74909182	    -65.31977065	      7.93927762	    -11.10471944
     52.58000000	      0.28240981	    101.30996062	    -65.56482542	      8.43614268	    -10.98368262
     52.59000000	      0.28281246	    100.79183783	    -65.73234406	      8.90195907	    -10.86342406
     52.60000000	      0.28319092	    100.20176036	    -65.81726494	      9.33504992	    -10.73722449
     52.61000000	      0.28355113	     99.53089466	    -65.81516547	      9.73256445	    -10.61597747
     52.62000000	      0.28389291	     98.77644854	    -65.72304613	     10.09291508	    -10.50244336
     52.63000000	      0.28421705	     97.93726779	    -65.53929365	     10.41482081	    -10.39741820
     52.64000000	      0.28452189	     97.00948603	    -65.26470274	     10.69850166	    -10.30472528
     52.65000000	      0.28481699	     95.98859283	    -64.89863224	     10.94256599	    -10.22971057
     52.66000000	      0.28509823	     94.87766379	    -64.44347687	     11.14785771	    -10.16738853
